<svg width="110" height="194" viewBox="0 0 110 194" fill="none" xmlns="http://www.w3.org/2000/svg">
<path d="M108.106 0.500388C101.926 0.500388 95.7719 0.325116 89.5788 0.617244C88.2285 0.682162 86.6835 1.9156 85.6123 3.38922C81.0681 9.50445 76.7121 15.8664 72.3107 22.2153C61.9954 37.0554 52.1863 52.6681 44.195 70.8645C42.4487 74.8244 40.7673 78.8428 38.8198 83.387C38.281 82.3549 37.9694 81.6992 37.6188 81.1019C33.9145 74.8625 29.3443 69.1798 24.0446 64.2234C22.941 63.1652 21.9088 62.8471 20.6234 63.347C16.5271 64.918 12.4049 66.2748 8.28911 67.7614C6.11438 68.5469 3.94613 69.3843 1.51821 70.3127L0.537964 70.6827L0.791142 71.5136C1.23907 72.0849 1.55068 72.4874 1.87526 72.8509C9.52217 81.4722 16.0243 91.0444 21.2207 101.33C21.3505 101.583 21.4739 101.837 21.5972 102.09L21.9283 102.7C24.4016 107.679 26.6608 112.86 28.7511 118.202C32.2502 128.849 33.172 139.417 31.0752 149.882C27.3943 161.34 24.5834 172.311 23.0513 182.6C22.6198 186.3 22.6068 190.037 23.0124 193.74L41.2737 151.544L48.3367 192.442C50.1414 181.296 50.3946 166.475 50.2258 150.674C49.3364 135.152 52.3681 119.397 57.581 103.511C61.1557 94.8774 64.8798 86.4079 68.7533 78.1028C73.7043 67.4649 78.8977 57.0782 84.3335 46.9424C92.1236 32.2775 100.225 17.9502 108.171 3.44765C108.593 2.67513 108.963 1.83769 109.502 0.734091C109.044 0.617812 108.577 0.539644 108.106 0.500388Z" fill="#6ED377"/>
<path d="M34.2691 48.5977C41.325 48.5977 47.0449 42.8778 47.0449 35.8219C47.0449 28.766 41.325 23.0461 34.2691 23.0461C27.2133 23.0461 21.4933 28.766 21.4933 35.8219C21.4933 42.8778 27.2133 48.5977 34.2691 48.5977Z" fill="#6ED377"/>
</svg>
