<svg width="120" height="40" viewBox="0 0 120 40" fill="none" xmlns="http://www.w3.org/2000/svg">
<rect width="120" height="40" rx="7" fill="black"/>
<path d="M18.8231 19.2529L24.3337 13.7439L12.3633 6.80373C11.9282 6.54313 11.4204 6.39273 10.877 6.39273C9.54686 6.39273 8.42466 7.29783 8.09806 8.52633C8.09766 8.52753 8.09766 8.52833 8.09766 8.52943L18.8231 19.2529Z" fill="#33BD5A"/>
<path d="M8.09764 8.52916C8.03364 8.76516 8 9.01236 8 9.26905V29.2367C8 29.4929 8.03324 29.7409 8.09804 29.9761L19.1109 18.9652L8.09764 8.52916Z" fill="#27AA44"/>
<path d="M29.5158 16.7519L29.5056 16.7449L24.3318 13.7456L18.5029 18.9324L24.3521 24.7808L29.4986 21.8113C30.4009 21.3242 31.0134 20.373 31.0134 19.2761C31.0134 18.1871 30.4091 17.2406 29.5158 16.7519Z" fill="#6ED377"/>
<path d="M18.7442 18.6762L8.09766 29.9762C8.09806 29.9785 8.09886 29.9805 8.09926 29.9828C8.42576 31.2098 9.54646 32.1133 10.8766 32.1133C11.4083 32.1133 11.9075 31.9695 12.3356 31.7172L12.3696 31.6973L24.3536 24.7821L18.7442 18.6762Z" fill="#41953F"/>
<path d="M42.8082 14C42.0279 14 41.3567 13.7082 40.8156 13.1333C40.2742 12.558 40 11.8376 40 11C40 10.1624 40.2743 9.4433 40.8156 8.8667C41.3567 8.29168 42.0279 8.00002 42.8082 8.00002C43.2057 8.00002 43.5768 8.07298 43.9313 8.22491C44.286 8.37685 44.5762 8.58778 44.8047 8.86381L44.8586 8.92902L44.2499 9.5757L44.189 9.49622C44.0375 9.29835 43.8447 9.14463 43.6005 9.03289C43.3572 8.92143 43.0907 8.86996 42.8082 8.86996C42.2586 8.86996 41.8026 9.06828 41.4218 9.47147C41.4217 9.47156 41.4215 9.47156 41.4214 9.47166C41.0493 9.88298 40.8622 10.3838 40.8622 11C40.8622 11.6167 41.0495 12.1176 41.4221 12.5291C41.8029 12.9321 42.2589 13.1315 42.8082 13.1315C43.3113 13.1315 43.7274 12.9823 44.0545 12.6868H44.0547C44.3593 12.4118 44.542 12.0402 44.6067 11.5665H42.7212V10.7139H45.4216L45.4332 10.7919C45.4553 10.9418 45.4709 11.0865 45.4709 11.2254C45.4709 12.021 45.2427 12.6704 44.7949 13.1481C44.2894 13.7176 43.6246 14 42.8082 14L42.8082 14ZM66.2567 14C65.4752 14 64.8119 13.7081 64.2777 13.1333C64.2776 13.1332 64.2776 13.1332 64.2775 13.1331C64.2775 13.1331 64.2774 13.133 64.2773 13.1329C63.7424 12.5643 63.477 11.8438 63.477 11C63.477 10.1562 63.7424 9.43565 64.2773 8.86706C64.2774 8.86699 64.2774 8.86697 64.2775 8.86687L64.2777 8.86669C64.8119 8.2918 65.4752 8 66.2567 8C67.0367 8 67.7002 8.29187 68.2343 8.87536C68.7694 9.44386 69.035 10.163 69.035 11C69.035 11.8438 68.7696 12.5643 68.2347 13.1329L68.2345 13.1331C67.7 13.7083 67.0303 14 66.2567 14L66.2567 14ZM46.2437 13.8757V8.12429H46.3307H49.4762V8.99423H47.0909V10.5737H49.2423V11.4263H47.0909V13.0072H49.4762V13.8757H46.2437ZM51.4545 13.8757V8.99423H49.9912V8.12429H53.765V8.99423H53.6779H52.3017V13.8757H51.4545ZM56.1767 13.8757V8.12429H57.024V8.21678V13.8757H56.1767ZM59.1566 13.8757V8.99423H57.6934V8.12429H61.4671V8.99423H61.3801H60.0039V13.8757H59.1566ZM69.787 13.8757V8.12429H70.7423L73.1737 12.2605L73.1528 11.4753V8.12429H74V13.8757H73.1616L70.6133 9.53054L70.6342 10.3152V10.3165V13.8757H69.787ZM66.2567 13.1315C66.8063 13.1315 67.2549 12.9323 67.6207 12.5298L67.6212 12.5291L67.6217 12.5285C67.9927 12.1342 68.1742 11.6267 68.1742 11C68.1742 10.3748 67.9926 9.86553 67.6217 9.47144L67.6212 9.47089L67.6207 9.47033C67.255 9.0679 66.8064 8.8699 66.2567 8.8699C65.7061 8.8699 65.2575 9.06756 64.8849 9.46997L64.8846 9.47034C64.5205 9.874 64.3392 10.375 64.3392 11C64.3392 11.6265 64.5204 12.1258 64.8846 12.5296L64.8849 12.5299C65.2576 12.9324 65.7062 13.1315 66.2567 13.1315V13.1315Z" fill="white"/>
<path d="M97.5182 28.4095H99.147V17.3974H97.5182V28.4095ZM112.189 21.3644L110.322 26.1385H110.266L108.328 21.3644H106.574L109.48 28.0369L107.823 31.7488H109.521L114 21.3644H112.189ZM102.951 27.1587C102.419 27.1587 101.674 26.8893 101.674 26.2235C101.674 25.3736 102.601 25.0478 103.401 25.0478C104.116 25.0478 104.454 25.2033 104.889 25.416C104.762 26.4362 103.892 27.1587 102.951 27.1587ZM103.148 21.1235C101.969 21.1235 100.748 21.6478 100.242 22.8095L101.688 23.4185C101.997 22.8095 102.572 22.6113 103.176 22.6113C104.019 22.6113 104.875 23.1209 104.889 24.0279V24.1411C104.594 23.9711 103.962 23.7162 103.19 23.7162C101.631 23.7162 100.045 24.5801 100.045 26.1953C100.045 27.6687 101.323 28.618 102.755 28.618C103.849 28.618 104.454 28.1221 104.832 27.541H104.889V28.3916H106.462V24.1693C106.462 22.2142 105.015 21.1235 103.148 21.1235ZM93.0822 22.7049H90.7656V18.9303H93.0822C94.2999 18.9303 94.9912 19.9474 94.9912 20.8175C94.9912 21.6709 94.2999 22.7049 93.0822 22.7049ZM93.0403 17.3974H89.1375V28.4095H90.7656V24.2375H93.0403C94.8455 24.2375 96.62 22.9189 96.62 20.8175C96.62 18.7166 94.8455 17.3974 93.0403 17.3974ZM71.7582 27.1608C70.633 27.1608 69.6913 26.2097 69.6913 24.9046C69.6913 23.5844 70.633 22.6199 71.7582 22.6199C72.8692 22.6199 73.741 23.5844 73.741 24.9046C73.741 26.2097 72.8692 27.1608 71.7582 27.1608ZM73.6285 21.981H73.5722C73.2067 21.5412 72.5033 21.1438 71.6178 21.1438C69.7612 21.1438 68.0598 22.7902 68.0598 24.9046C68.0598 27.0046 69.7612 28.6366 71.6178 28.6366C72.5033 28.6366 73.2067 28.2391 73.5722 27.7853H73.6285V28.3241C73.6285 29.7579 72.8692 30.5239 71.6457 30.5239C70.6477 30.5239 70.0289 29.8003 69.7755 29.1902L68.3554 29.7862C68.7629 30.7792 69.8454 32 71.6457 32C73.5586 32 75.1758 30.8645 75.1758 28.097V21.3709H73.6285V21.981ZM76.301 28.4095H77.9315V17.3974H76.301V28.4095ZM80.3364 24.7766C80.2944 23.329 81.4479 22.5913 82.2772 22.5913C82.9243 22.5913 83.4722 22.9179 83.6557 23.3859L80.3364 24.7766ZM85.3988 23.5276C85.0895 22.6908 84.1474 21.1438 82.2209 21.1438C80.308 21.1438 78.7191 22.6622 78.7191 24.8902C78.7191 26.9905 80.2944 28.6366 82.4033 28.6366C84.1047 28.6366 85.0895 27.5868 85.4976 26.9763L84.2319 26.1247C83.8099 26.7492 83.2336 27.1608 82.4033 27.1608C81.5741 27.1608 80.9832 26.7775 80.604 26.0253L85.5675 23.9536L85.3988 23.5276ZM45.8504 22.2933V23.8827H49.6191C49.5066 24.7766 49.2113 25.4294 48.7612 25.8835C48.2126 26.4368 47.3547 27.0472 45.8504 27.0472C43.53 27.0472 41.7161 25.1599 41.7161 22.8184C41.7161 20.4769 43.53 18.5893 45.8504 18.5893C47.102 18.5893 48.0159 19.0861 48.6909 19.7248L49.8022 18.6034C48.8598 17.6953 47.6084 17 45.8504 17C42.6718 17 40 19.6112 40 22.8184C40 26.0253 42.6718 28.6366 45.8504 28.6366C47.5658 28.6366 48.8598 28.0688 49.8721 27.0046C50.9128 25.9544 51.2364 24.4787 51.2364 23.2864C51.2364 22.9179 51.208 22.5772 51.1518 22.2933H45.8504ZM55.521 27.1608C54.3957 27.1608 53.4254 26.2242 53.4254 24.8902C53.4254 23.542 54.3957 22.6199 55.521 22.6199C56.6458 22.6199 57.6162 23.542 57.6162 24.8902C57.6162 26.2242 56.6458 27.1608 55.521 27.1608ZM55.521 21.1438C53.4673 21.1438 51.7941 22.719 51.7941 24.8902C51.7941 27.0472 53.4673 28.6366 55.521 28.6366C57.5739 28.6366 59.2474 27.0472 59.2474 24.8902C59.2474 22.719 57.5739 21.1438 55.521 21.1438ZM63.65 27.1608C62.5255 27.1608 61.5548 26.2242 61.5548 24.8902C61.5548 23.542 62.5255 22.6199 63.65 22.6199C64.7752 22.6199 65.7452 23.542 65.7452 24.8902C65.7452 26.2242 64.7752 27.1608 63.65 27.1608ZM63.65 21.1438C61.597 21.1438 59.9239 22.719 59.9239 24.8902C59.9239 27.0472 61.597 28.6366 63.65 28.6366C65.7037 28.6366 67.3768 27.0472 67.3768 24.8902C67.3768 22.719 65.7037 21.1438 63.65 21.1438Z" fill="white"/>
</svg>
